<svg width="500" height="500" viewBox="0 0 500 500" fill="none" xmlns="http://www.w3.org/2000/svg">
<path d="M284.9 192.57C227.78 153.89 141.32 30.7201 74.7999 138C26.9999 215 161.48 294.64 218.49 319.58C291.41 351.49 421.82 339.64 439.82 242C447.03 202.91 428.61 187.25 393.48 194.39C352.26 202.77 327 221.06 284.9 192.57Z" fill="#419644"/>
<path opacity="0.9" d="M284.9 192.57C227.78 153.89 141.32 30.7201 74.7999 138C26.9999 215 161.48 294.64 218.49 319.58C291.41 351.49 421.82 339.64 439.82 242C447.03 202.91 428.61 187.25 393.48 194.39C352.26 202.77 327 221.06 284.9 192.57Z" fill="white"/>
<path d="M250 427.56C357.082 427.56 443.89 422.492 443.89 416.24C443.89 409.988 357.082 404.92 250 404.92C142.917 404.92 56.11 409.988 56.11 416.24C56.11 422.492 142.917 427.56 250 427.56Z" fill="#F5F5F5"/>
<path d="M203.03 384.25L196.63 388.37L185.03 374.88L191.43 370.76L203.03 384.25Z" fill="#FF8B7B"/>
<path opacity="0.2" d="M191.44 370.76L185.03 374.88L191.02 381.84L197.42 377.71L191.44 370.76Z" fill="black"/>
<path d="M154.12 406.25L146.76 406.97L139.11 389.47L146.47 388.75L154.12 406.25Z" fill="#FF8B7B"/>
<path opacity="0.2" d="M139.12 389.48L143.06 398.5H150.73L146.47 388.76L139.12 389.48Z" fill="black"/>
<path d="M98.23 170C94.53 170.33 94.43 164.05 87.93 167C79.67 170.76 82.46 176.59 76.01 176.35C69.56 176.11 65.24 181.14 66.68 184.89C68.12 188.64 70.35 192.19 65.79 193.7C61.23 195.21 58.13 196.54 58.79 200.32C59.45 204.1 62.68 205.62 57.24 208.03C51.8 210.44 52.35 220.86 57.68 220.87C63.01 220.88 57.9 226.07 62.68 231.35C67.46 236.63 74.73 237.35 77.76 234.75C80.79 232.15 84.17 230 89.87 234C95.57 238 105.22 239 104.78 232.66C104.34 226.32 98.78 222.16 104.02 218.86C109.26 215.56 116.02 213.93 113.9 207.51C112.55 203.51 108.47 200.03 111.76 197.04C117.11 192.18 117.14 181.18 110.58 178.39C106.77 176.78 110.44 168.9 98.23 170Z" fill="#263238"/>
<path d="M91.11 219.42C90.93 222.42 90.55 225.09 90.11 227.9C89.67 230.71 89.03 233.45 88.3 236.2C87.5884 238.98 86.6828 241.707 85.59 244.36C85.05 245.7 84.43 247.03 83.77 248.36C83.44 249.02 83.08 249.67 82.71 250.31C82.54 250.64 82.33 250.96 82.14 251.31L81.85 251.78C81.6531 252.093 81.4324 252.391 81.19 252.67C80.6353 253.296 79.9535 253.798 79.19 254.14C78.5079 254.449 77.7767 254.635 77.03 254.69C75.9317 254.753 74.8316 254.604 73.79 254.25C72.2387 253.717 70.7605 252.991 69.39 252.09C66.9763 250.511 64.6924 248.742 62.56 246.8C58.4488 243.06 54.6154 239.026 51.09 234.73L53.93 232C55.93 233.76 57.93 235.55 60.02 237.25C62.11 238.95 64.15 240.66 66.28 242.25C68.3079 243.81 70.4469 245.221 72.68 246.47C73.6241 247.005 74.6321 247.418 75.68 247.7C75.9321 247.778 76.1979 247.802 76.46 247.77H76.26C76.1278 247.834 76.0064 247.919 75.9 248.02L75.85 248.07C75.85 248.07 75.85 248.14 75.85 248.07L76.07 247.66C76.21 247.39 76.37 247.13 76.5 246.85C76.78 246.297 77.05 245.737 77.31 245.17C77.81 244.03 78.31 242.87 78.71 241.66C79.55 239.26 80.25 236.78 80.87 234.26C81.49 231.74 81.96 229.17 82.38 226.58C82.8 223.99 83.12 221.34 83.38 218.88L91.11 219.42Z" fill="#FF8B7B"/>
<path d="M96.92 220.359C96.52 222.779 94.51 227.359 92.92 230.759C91.74 233.219 90.78 235.069 90.78 235.069L89.38 234.449L77.79 229.289C78.67 223.039 80.1 216.289 86.99 213.219C91.29 211.319 97.63 215.999 96.92 220.359Z" fill="#419644"/>
<path opacity="0.6" d="M96.92 220.359C96.52 222.779 94.51 227.359 92.92 230.759C91.74 233.219 90.78 235.069 90.78 235.069L89.38 234.449L77.79 229.289C78.67 223.039 80.1 216.289 86.99 213.219C91.29 211.319 97.63 215.999 96.92 220.359Z" fill="black"/>
<path opacity="0.3" d="M92.89 230.76C91.71 233.22 90.75 235.07 90.75 235.07L89.35 234.45C89.54 231.98 90.03 228.09 91.35 226.34C92.1745 227.686 92.6997 229.193 92.89 230.76Z" fill="black"/>
<path d="M54.37 234.29L55.29 227.56L47.74 230C47.74 230 48.94 234.07 51.63 235.74L54.37 234.29Z" fill="#FF8B7B"/>
<path d="M51.87 221.81L46.6 224.7L47.74 230.04L55.29 227.56L51.87 221.81Z" fill="#FF8B7B"/>
<path d="M194.27 386.35L201.22 381.35C201.339 381.263 201.486 381.222 201.633 381.235C201.78 381.248 201.918 381.313 202.02 381.42L206.75 386.35C206.865 386.478 206.952 386.629 207.004 386.792C207.057 386.956 207.074 387.129 207.056 387.3C207.037 387.471 206.982 387.636 206.895 387.784C206.808 387.932 206.69 388.06 206.55 388.16C204.1 389.86 202.83 390.55 199.77 392.74C197.89 394.09 193.93 397.35 191.33 399.21C188.73 401.07 186.76 398.61 187.67 397.6C191.77 393.08 192.86 390 193.51 387.46C193.628 387.013 193.896 386.621 194.27 386.35Z" fill="#263238"/>
<path d="M145.79 404.7H154.79C154.952 404.702 155.108 404.757 155.236 404.856C155.364 404.956 155.457 405.093 155.5 405.249L157.5 412.39C157.549 412.558 157.557 412.736 157.524 412.909C157.491 413.081 157.419 413.243 157.312 413.383C157.204 413.522 157.066 413.634 156.908 413.71C156.749 413.786 156.575 413.823 156.4 413.819C153.22 413.819 151.71 413.819 147.74 413.819H135.6C132.3 413.819 131.6 410.479 132.97 410.179C139.09 408.829 142.62 406.959 144.51 405.179C144.86 404.863 145.318 404.691 145.79 404.7Z" fill="#263238"/>
<path d="M132.05 247.459L102.58 256.779C82.18 216.399 85.09 214.259 85.09 214.259C85.09 214.259 89.8 211.569 94.7 209.329C95.44 208.989 96.19 208.659 96.93 208.329C101.283 206.599 105.755 205.182 110.31 204.089C110.98 203.909 111.65 203.749 112.31 203.589C115.938 202.769 119.611 202.164 123.31 201.779C123.75 207.369 124.19 212.099 124.67 216.209C125.29 221.569 125.96 225.859 126.67 229.569C127.982 235.667 129.782 241.649 132.05 247.459Z" fill="#419644"/>
<path opacity="0.6" d="M132.05 247.459L102.58 256.779C82.18 216.399 85.09 214.259 85.09 214.259C85.09 214.259 89.8 211.569 94.7 209.329C95.44 208.989 96.19 208.659 96.93 208.329C101.283 206.599 105.755 205.182 110.31 204.089C110.98 203.909 111.65 203.749 112.31 203.589C115.938 202.769 119.611 202.164 123.31 201.779C123.75 207.369 124.19 212.099 124.67 216.209C125.29 221.569 125.96 225.859 126.67 229.569C127.982 235.667 129.782 241.649 132.05 247.459Z" fill="black"/>
<path opacity="0.3" d="M126.75 229.589C123.92 225.589 121.21 216.279 121.91 212.789L124.71 216.229C125.33 221.589 126 225.879 126.75 229.589Z" fill="black"/>
<path d="M103.63 221.799C103.63 221.799 111.06 220.189 113.45 223.419C116.73 220.189 115.57 207.569 113.99 203.069C112.737 203.282 111.508 203.617 110.32 204.069L105.07 212.189L103.63 221.799Z" fill="white"/>
<path d="M103.63 221.8C103.63 221.8 98.6299 222.92 98.0999 227.01C91.0999 221.8 91.5899 214.17 93.1699 209.67C94.3694 209.089 95.6308 208.646 96.9299 208.35L102.18 214.13L103.63 221.8Z" fill="white"/>
<path d="M105.34 195.59C106.34 199.27 107.86 202.91 110.34 204.11C110.34 204.11 112.65 210.73 103.65 221.8C94.23 215.09 96.95 208.35 96.95 208.35C101.39 205.68 100.14 202.16 98.25 199.08L100.86 194.89C101.12 194.486 101.492 194.167 101.93 193.97C102.368 193.774 102.853 193.709 103.328 193.783C103.802 193.857 104.245 194.067 104.602 194.388C104.959 194.709 105.215 195.126 105.34 195.59Z" fill="#FF8B7B"/>
<path opacity="0.2" d="M105.34 195.589C105.22 195.118 104.965 194.692 104.605 194.364C104.245 194.037 103.797 193.823 103.316 193.748C102.836 193.673 102.344 193.742 101.902 193.945C101.46 194.148 101.087 194.476 100.83 194.889L99.99 196.229C100.06 197.119 100.1 197.849 100.09 198.229C100.01 200.829 103.66 200.709 106.63 199.459C106.101 198.205 105.669 196.911 105.34 195.589Z" fill="black"/>
<path d="M87.2499 185.54C89.8499 192.63 90.7899 195.69 95.5499 198.31C102.7 202.26 110.84 197.52 110.42 189.79C110.04 182.84 105.86 172.4 97.9299 171.63C96.182 171.453 94.4178 171.725 92.8049 172.422C91.1919 173.118 89.7836 174.215 88.7137 175.608C87.6437 177.002 86.9477 178.646 86.6915 180.384C86.4353 182.122 86.6276 183.897 87.2499 185.54Z" fill="#FF8B7B"/>
<path d="M105.64 174.879C103.2 172.529 100.64 169.799 95.74 170.329C90.32 170.919 88.18 174.199 88.18 174.199L83.52 184.389C83.52 184.389 86.41 197.509 91.18 191.389C93.93 187.849 94 182.499 93 178.499C94.8739 178.235 96.721 177.807 98.52 177.219C100.72 178.039 103.19 178.039 105.02 176.359C105.42 175.989 105.71 175.699 105.92 175.469L106.09 175.279C106.63 174.589 106.18 174.659 105.64 174.879ZM99.34 176.999C101.048 176.447 102.784 175.983 104.54 175.609C103.887 176.3 103.055 176.796 102.137 177.041C101.219 177.287 100.25 177.272 99.34 176.999Z" fill="#263238"/>
<path d="M87.61 192.749C88.3609 194.008 89.5798 194.917 91 195.279C92.88 195.749 93.77 194.059 93.2 192.279C92.69 190.709 91.1 188.569 89.2 188.869C88.7892 188.944 88.4039 189.122 88.0796 189.385C87.7552 189.648 87.5023 189.988 87.3439 190.374C87.1856 190.761 87.1269 191.181 87.1734 191.596C87.2199 192.011 87.37 192.407 87.61 192.749Z" fill="#FF8B7B"/>
<path d="M102.58 256.79C102.58 256.79 101.58 317.18 109.47 339C117.07 359.92 139.74 395.88 139.74 395.88L152.88 395.55C152.88 395.55 132 350 128.59 332C122.91 302.13 124.16 250 124.16 250L102.58 256.79Z" fill="#419644"/>
<path opacity="0.3" d="M114.38 262L117.91 252L124.16 250C124.16 250 123.59 273.73 124.96 298.34C119.29 287.42 114.38 267.42 114.38 262Z" fill="black"/>
<path d="M137.89 396.559L154.12 396.149L153.18 391.159L135.46 391.999L137.89 396.559Z" fill="#263238"/>
<path d="M109 254.84C109 254.84 129.5 301.73 142.75 328.42C153.45 349.98 186.75 378.9 186.75 378.9L195.88 372.57C195.88 372.57 170.82 338.31 163.43 323.69C139.78 276.91 145.61 257.63 132.01 247.46L109 254.84Z" fill="#419644"/>
<path d="M187.29 381.919L198.01 374.289L195.58 369.609L183.8 378.519L187.29 381.919Z" fill="#263238"/>
<path d="M132 245.59L134.16 247.81C134.33 247.98 134.16 248.27 133.81 248.38L102.9 258.15C102.64 258.24 102.38 258.15 102.31 258.02L101.21 255.46C101.13 255.29 101.31 255.06 101.6 254.97L131.45 245.52C131.54 245.483 131.638 245.47 131.734 245.482C131.831 245.494 131.922 245.531 132 245.59Z" fill="#263238"/>
<path d="M129 250.199L129.8 249.949C129.96 249.949 130.06 249.769 130.01 249.679L128.56 246.369C128.517 246.315 128.457 246.277 128.39 246.261C128.323 246.244 128.253 246.251 128.19 246.279L127.39 246.539C127.23 246.589 127.13 246.709 127.18 246.809L128.64 250.109C128.67 250.209 128.83 250.249 129 250.199Z" fill="#419644"/>
<path d="M105.19 257.73L105.99 257.48C106.15 257.43 106.24 257.31 106.2 257.21L104.74 253.9C104.74 253.8 104.53 253.77 104.37 253.82L103.57 254.07C103.42 254.12 103.32 254.24 103.36 254.34L104.82 257.65C104.865 257.701 104.925 257.736 104.992 257.75C105.058 257.765 105.128 257.757 105.19 257.73Z" fill="#419644"/>
<path d="M117.09 253.999L117.89 253.749C118.05 253.699 118.15 253.579 118.1 253.479L116.64 250.169C116.64 250.079 116.44 250.039 116.28 250.089L115.48 250.339C115.32 250.339 115.22 250.509 115.27 250.609L116.72 253.919C116.77 253.999 116.93 253.999 117.09 253.999Z" fill="#419644"/>
<path d="M99.69 183.999C99.87 184.589 100.32 184.999 100.69 184.859C101.06 184.719 101.24 184.169 101.06 183.589C100.88 183.009 100.44 182.589 100.06 182.729C99.68 182.869 99.52 183.389 99.69 183.999Z" fill="#263238"/>
<path d="M106.34 182C106.52 182.59 106.97 183 107.34 182.86C107.71 182.72 107.89 182.18 107.72 181.59C107.55 181 107.09 180.59 106.72 180.73C106.35 180.87 106.17 181.41 106.34 182Z" fill="#263238"/>
<path d="M106.56 180.809L107.85 179.979C107.85 179.979 107.46 181.299 106.56 180.809Z" fill="#263238"/>
<path d="M104.68 183.529C105.608 184.713 106.691 185.765 107.9 186.659C107.659 186.961 107.355 187.206 107.01 187.379C106.664 187.551 106.286 187.647 105.9 187.659L104.68 183.529Z" fill="#FF5652"/>
<path d="M103.92 190.899C103.948 190.877 103.968 190.847 103.979 190.813C103.989 190.779 103.99 190.743 103.98 190.709C103.966 190.664 103.936 190.626 103.895 190.602C103.854 190.578 103.806 190.57 103.76 190.579C103.034 190.816 102.261 190.877 101.507 190.758C100.752 190.638 100.037 190.34 99.42 189.889C99.4016 189.873 99.3803 189.861 99.3573 189.854C99.3343 189.846 99.31 189.843 99.2859 189.845C99.2617 189.847 99.2382 189.854 99.2166 189.865C99.195 189.876 99.1758 189.891 99.16 189.909C99.1442 189.928 99.1323 189.949 99.1247 189.972C99.1172 189.995 99.1143 190.019 99.1161 190.043C99.118 190.067 99.1246 190.091 99.1356 190.113C99.1465 190.134 99.1616 190.153 99.18 190.169C99.8433 190.659 100.614 190.984 101.428 191.116C102.242 191.248 103.076 191.184 103.86 190.929L103.92 190.899Z" fill="#263238"/>
<path d="M97.1799 182.37C97.2265 182.326 97.261 182.271 97.2799 182.21C97.4284 181.783 97.6749 181.397 97.9997 181.082C98.3244 180.768 98.7184 180.534 99.1499 180.4C99.2002 180.394 99.2487 180.379 99.2925 180.353C99.3362 180.328 99.3742 180.294 99.4038 180.253C99.4335 180.212 99.4542 180.166 99.4647 180.116C99.4751 180.067 99.4751 180.016 99.4645 179.966C99.4539 179.917 99.433 179.87 99.4033 179.829C99.3735 179.789 99.3354 179.755 99.2916 179.729C99.2478 179.704 99.1992 179.689 99.1489 179.683C99.0987 179.678 99.0479 179.684 98.9999 179.7C98.444 179.859 97.9355 180.151 97.5189 180.552C97.1022 180.953 96.7902 181.45 96.6099 182C96.5923 182.044 96.5838 182.092 96.5848 182.14C96.5859 182.188 96.5965 182.235 96.616 182.279C96.6356 182.323 96.6637 182.362 96.6987 182.395C96.7337 182.428 96.7749 182.453 96.8199 182.47C96.8836 182.483 96.9494 182.48 97.012 182.463C97.0746 182.446 97.1321 182.414 97.1799 182.37Z" fill="#263238"/>
<path d="M108.37 178.229C108.367 178.206 108.367 178.182 108.37 178.159C108.382 178.066 108.36 177.971 108.306 177.893C108.252 177.816 108.172 177.761 108.08 177.739C107.52 177.62 106.939 177.636 106.386 177.785C105.833 177.935 105.324 178.214 104.9 178.599C104.834 178.668 104.798 178.761 104.799 178.856C104.801 178.952 104.841 179.043 104.91 179.109C104.979 179.176 105.071 179.212 105.167 179.21C105.263 179.208 105.354 179.168 105.42 179.099C105.759 178.799 106.164 178.584 106.602 178.471C107.04 178.358 107.498 178.351 107.94 178.449C108.026 178.47 108.117 178.459 108.196 178.419C108.275 178.379 108.337 178.311 108.37 178.229Z" fill="#263238"/>
<path d="M127.83 208.859C129.02 209.749 130.02 210.579 131.06 211.479C132.1 212.379 133.06 213.279 134.06 214.219C136.01 216.099 137.89 218.059 139.67 220.119C141.47 222.191 143.14 224.372 144.67 226.649C145.07 227.209 145.42 227.819 145.79 228.399C146.16 228.979 146.53 229.569 146.86 230.189C147.19 230.809 147.54 231.359 147.86 232.049L148.39 233.159L148.82 234.279C149.742 237.119 150.175 240.095 150.1 243.079C150.039 245.853 149.742 248.616 149.21 251.339C148.69 254.009 148.01 256.619 147.21 259.179C146.403 261.744 145.462 264.264 144.39 266.729L140.77 265.389C141.39 262.989 141.98 260.469 142.42 257.979C142.909 255.513 143.266 253.023 143.49 250.519C143.73 248.094 143.787 245.654 143.66 243.219C143.588 242.065 143.448 240.917 143.24 239.779C143.021 238.73 142.716 237.7 142.33 236.699L142.02 236.009L141.68 235.379C141.41 234.919 141.04 234.379 140.68 233.869C140.32 233.359 140.02 232.869 139.68 232.359C139.34 231.849 138.99 231.359 138.61 230.879C137.15 228.879 135.5 227.059 133.86 225.209C132.22 223.359 130.42 221.619 128.59 219.919C127.69 219.059 126.76 218.219 125.83 217.399C124.9 216.579 123.9 215.759 123.04 215.059L127.83 208.859Z" fill="#FF8B7B"/>
<path d="M141.92 263L136.44 267L143.44 270.7C143.44 270.7 145.53 267 144.86 263.91L141.92 263Z" fill="#FF8B7B"/>
<path d="M134.71 273.49L140.44 275.26L143.49 270.72L136.44 267.02L134.71 273.49Z" fill="#FF8B7B"/>
<path d="M123.35 201.799C127.18 201.629 134.71 211.039 134.71 211.039L126.89 222.099C126.89 222.099 118.11 215.099 117.43 210.229C116.86 206.079 118.47 201.999 123.35 201.799Z" fill="#419644"/>
<path opacity="0.6" d="M123.35 201.799C127.18 201.629 134.71 211.039 134.71 211.039L126.89 222.099C126.89 222.099 118.11 215.099 117.43 210.229C116.86 206.079 118.47 201.999 123.35 201.799Z" fill="black"/>
<path d="M191.64 389.48H191.52C191.345 389.458 191.178 389.39 191.038 389.283C190.897 389.176 190.788 389.033 190.72 388.87C190.667 388.775 190.64 388.668 190.64 388.56C190.64 388.452 190.667 388.345 190.72 388.25C191.21 387.41 193.96 387.25 194.27 387.25C194.305 387.25 194.339 387.259 194.369 387.276C194.399 387.294 194.424 387.319 194.44 387.35C194.46 387.38 194.47 387.414 194.47 387.45C194.47 387.486 194.46 387.52 194.44 387.55C193.77 388.29 192.58 389.48 191.64 389.48ZM193.84 387.65C192.74 387.73 191.28 387.99 191.03 388.43C191.003 388.47 190.988 388.517 190.988 388.565C190.988 388.613 191.003 388.66 191.03 388.7C191.072 388.809 191.143 388.906 191.234 388.98C191.325 389.053 191.434 389.102 191.55 389.12C192.08 389.18 192.92 388.63 193.84 387.65Z" fill="#419644"/>
<path d="M194.08 387.63C193.16 387.63 191.35 387.12 191.01 386.38C190.956 386.248 190.946 386.103 190.982 385.966C191.018 385.829 191.098 385.707 191.21 385.62C191.314 385.526 191.436 385.456 191.569 385.413C191.701 385.37 191.841 385.355 191.98 385.37C193.07 385.49 194.36 387.26 194.41 387.37C194.427 387.397 194.436 387.428 194.436 387.46C194.436 387.491 194.427 387.523 194.41 387.55C194.396 387.576 194.376 387.599 194.352 387.616C194.328 387.634 194.3 387.645 194.27 387.65L194.08 387.63ZM191.86 385.73C191.711 385.729 191.567 385.786 191.46 385.89C191.29 386.04 191.31 386.16 191.34 386.24C191.56 386.72 192.98 387.24 193.91 387.24C193.45 386.67 192.59 385.77 191.91 385.7L191.86 385.73Z" fill="#419644"/>
<path d="M141.78 406.19C141.164 406.234 140.549 406.087 140.02 405.77C139.883 405.669 139.77 405.538 139.69 405.387C139.611 405.237 139.566 405.07 139.56 404.9C139.552 404.805 139.569 404.71 139.609 404.624C139.65 404.538 139.712 404.464 139.79 404.41C140.61 403.86 143.68 405.25 144.29 405.54C144.324 405.555 144.352 405.58 144.37 405.613C144.388 405.645 144.395 405.683 144.39 405.72C144.387 405.758 144.371 405.794 144.346 405.823C144.321 405.851 144.287 405.871 144.25 405.88C143.439 406.066 142.612 406.169 141.78 406.19ZM140.35 404.63C140.225 404.623 140.101 404.651 139.99 404.71C139.964 404.729 139.944 404.755 139.932 404.785C139.919 404.815 139.915 404.848 139.92 404.88C139.924 404.998 139.955 405.113 140.01 405.217C140.066 405.321 140.144 405.411 140.24 405.48C140.77 405.88 142.02 405.94 143.63 405.64C142.596 405.134 141.489 404.793 140.35 404.63Z" fill="#419644"/>
<path d="M144.21 405.879H144.15C143.15 405.459 141.07 403.809 141.15 402.959C141.15 402.779 141.3 402.539 141.76 402.489C143.56 402.269 144.32 405.489 144.35 405.669C144.357 405.702 144.355 405.736 144.344 405.767C144.333 405.799 144.315 405.827 144.29 405.849C144.266 405.866 144.239 405.877 144.21 405.879ZM142 402.829H141.88C141.69 402.829 141.59 402.909 141.57 402.999C141.51 403.489 142.93 404.799 143.97 405.369C143.7 404.579 143.05 402.829 142 402.829Z" fill="#419644"/>
<path d="M99.91 182.79L101.2 181.96C101.2 181.96 100.81 183.28 99.91 182.79Z" fill="#263238"/>
<path d="M288.63 109.67H143.3C141.747 109.66 140.209 109.967 138.78 110.574C137.35 111.181 136.061 112.074 134.99 113.198C133.919 114.322 133.089 115.654 132.553 117.111C132.016 118.568 131.784 120.12 131.87 121.67L145.5 404.24C145.694 407.459 147.099 410.486 149.433 412.712C151.766 414.937 154.855 416.198 158.08 416.24H303.41C304.962 416.251 306.5 415.943 307.929 415.336C309.358 414.73 310.647 413.836 311.717 412.712C312.787 411.587 313.616 410.255 314.151 408.798C314.686 407.341 314.918 405.79 314.83 404.24L301.21 121.67C301.016 118.451 299.611 115.425 297.277 113.199C294.944 110.973 291.855 109.712 288.63 109.67Z" fill="black"/>
<path d="M294 109.67H148.63C147.078 109.66 145.54 109.967 144.111 110.574C142.682 111.181 141.393 112.074 140.323 113.199C139.253 114.323 138.424 115.655 137.889 117.112C137.354 118.569 137.123 120.12 137.21 121.67L150.83 404.24C151.024 407.459 152.429 410.486 154.763 412.712C157.096 414.937 160.185 416.198 163.41 416.24H308.74C310.292 416.251 311.83 415.943 313.259 415.336C314.688 414.73 315.977 413.836 317.047 412.712C318.117 411.587 318.946 410.255 319.481 408.798C320.017 407.341 320.248 405.79 320.16 404.24L306.54 121.67C306.346 118.458 304.947 115.437 302.622 113.212C300.297 110.987 297.218 109.722 294 109.67Z" fill="#263238"/>
<path d="M163 408.24C161.93 408.213 160.907 407.788 160.133 407.049C159.358 406.309 158.887 405.308 158.81 404.24L145.21 121.67C145.186 121.154 145.266 120.639 145.447 120.155C145.627 119.671 145.904 119.229 146.26 118.855C146.616 118.481 147.044 118.184 147.518 117.98C147.993 117.776 148.504 117.671 149.02 117.67H294.35C295.422 117.692 296.447 118.116 297.222 118.856C297.998 119.596 298.468 120.6 298.54 121.67L312.16 404.24C312.184 404.755 312.104 405.269 311.924 405.752C311.745 406.236 311.469 406.677 311.114 407.051C310.759 407.425 310.332 407.723 309.859 407.927C309.385 408.131 308.876 408.238 308.36 408.24H163Z" fill="#419644"/>
<path opacity="0.1" d="M162.93 406.24C162.396 406.222 161.886 406.009 161.499 405.64C161.112 405.271 160.874 404.773 160.83 404.24L147.21 121.67C147.201 121.413 147.243 121.157 147.334 120.917C147.425 120.676 147.563 120.457 147.739 120.27C147.916 120.084 148.129 119.935 148.364 119.832C148.6 119.729 148.853 119.674 149.11 119.67H294.44C294.975 119.686 295.486 119.898 295.873 120.268C296.261 120.637 296.498 121.136 296.54 121.67L310.16 404.24C310.169 404.497 310.127 404.753 310.036 404.993C309.945 405.233 309.808 405.453 309.631 405.639C309.454 405.826 309.241 405.975 309.006 406.078C308.77 406.181 308.517 406.236 308.26 406.24H162.93Z" fill="black"/>
<g opacity="0.3">
<path opacity="0.3" d="M206.79 390H178C177.21 389.991 176.452 389.682 175.881 389.137C175.309 388.591 174.966 387.849 174.92 387.06L172.82 343.35C172.794 342.963 172.848 342.576 172.978 342.211C173.109 341.847 173.314 341.513 173.58 341.231C173.845 340.95 174.166 340.726 174.523 340.574C174.879 340.423 175.263 340.346 175.65 340.35H204.49C205.278 340.356 206.035 340.663 206.605 341.207C207.175 341.751 207.517 342.493 207.56 343.28L209.63 387C209.655 387.387 209.6 387.774 209.468 388.139C209.336 388.504 209.13 388.837 208.864 389.119C208.597 389.4 208.275 389.624 207.919 389.775C207.562 389.927 207.178 390.003 206.79 390ZM175.61 341.37C175.361 341.368 175.113 341.417 174.883 341.514C174.653 341.61 174.444 341.751 174.27 341.93C174.1 342.114 173.968 342.329 173.883 342.565C173.797 342.8 173.758 343.05 173.77 343.3L175.88 387C175.908 387.535 176.138 388.039 176.525 388.411C176.911 388.782 177.424 388.993 177.96 389H206.79C207.041 389.002 207.289 388.952 207.52 388.854C207.751 388.756 207.959 388.611 208.131 388.429C208.304 388.247 208.437 388.032 208.523 387.796C208.609 387.561 208.645 387.31 208.63 387.06L206.52 343.35C206.495 342.815 206.266 342.311 205.882 341.939C205.497 341.568 204.985 341.357 204.45 341.35L175.61 341.37Z" fill="#FAFAFA"/>
<path opacity="0.3" d="M204.07 351.52H177C176.867 351.52 176.74 351.467 176.646 351.373C176.553 351.279 176.5 351.152 176.5 351.02C176.5 350.887 176.553 350.76 176.646 350.666C176.74 350.572 176.867 350.52 177 350.52H204.1C204.233 350.52 204.36 350.572 204.454 350.666C204.547 350.76 204.6 350.887 204.6 351.02C204.6 351.152 204.547 351.279 204.454 351.373C204.36 351.467 204.233 351.52 204.1 351.52H204.07Z" fill="#FAFAFA"/>
<path opacity="0.3" d="M204.35 357.17H177.24C177.108 357.167 176.982 357.114 176.889 357.021C176.796 356.927 176.743 356.802 176.74 356.67C176.74 356.537 176.793 356.41 176.886 356.316C176.98 356.223 177.107 356.17 177.24 356.17H204.35C204.483 356.17 204.61 356.223 204.704 356.316C204.797 356.41 204.85 356.537 204.85 356.67C204.847 356.802 204.794 356.927 204.701 357.021C204.607 357.114 204.482 357.167 204.35 357.17Z" fill="#FAFAFA"/>
<path opacity="0.3" d="M204.62 362.819H177.51C177.378 362.817 177.253 362.763 177.159 362.67C177.066 362.577 177.013 362.451 177.01 362.319C177.01 362.187 177.063 362.06 177.156 361.966C177.25 361.872 177.377 361.819 177.51 361.819H204.62C204.753 361.819 204.88 361.872 204.974 361.966C205.067 362.06 205.12 362.187 205.12 362.319C205.12 362.452 205.067 362.579 204.974 362.673C204.88 362.767 204.753 362.819 204.62 362.819Z" fill="#FAFAFA"/>
<path opacity="0.3" d="M204.89 368.47H177.79C177.657 368.47 177.53 368.417 177.436 368.323C177.343 368.23 177.29 368.102 177.29 367.97C177.29 367.837 177.343 367.71 177.436 367.616C177.53 367.522 177.657 367.47 177.79 367.47H204.89C205.023 367.47 205.15 367.522 205.244 367.616C205.337 367.71 205.39 367.837 205.39 367.97C205.39 368.102 205.337 368.23 205.244 368.323C205.15 368.417 205.023 368.47 204.89 368.47Z" fill="#FAFAFA"/>
<path opacity="0.3" d="M205.16 374.12H178.06C177.927 374.12 177.8 374.067 177.707 373.974C177.613 373.88 177.56 373.753 177.56 373.62C177.56 373.488 177.613 373.36 177.707 373.267C177.8 373.173 177.927 373.12 178.06 373.12H205.16C205.293 373.12 205.42 373.173 205.514 373.267C205.607 373.36 205.66 373.488 205.66 373.62C205.66 373.753 205.607 373.88 205.514 373.974C205.42 374.067 205.293 374.12 205.16 374.12Z" fill="#FAFAFA"/>
<path opacity="0.3" d="M199.88 379.77H178.33C178.197 379.77 178.07 379.717 177.977 379.623C177.883 379.529 177.83 379.402 177.83 379.27C177.83 379.137 177.883 379.01 177.977 378.916C178.07 378.822 178.197 378.77 178.33 378.77H199.88C200.013 378.77 200.14 378.822 200.234 378.916C200.327 379.01 200.38 379.137 200.38 379.27C200.378 379.401 200.324 379.527 200.231 379.62C200.138 379.713 200.012 379.767 199.88 379.77Z" fill="#FAFAFA"/>
</g>
<g opacity="0.3">
<path opacity="0.3" d="M224.94 229.63L205.17 232.79C204.407 230.909 203.398 229.137 202.17 227.52C200.987 226.278 199.587 225.262 198.04 224.52L198.78 240.02C209.773 242.914 217.17 245.967 220.97 249.18C223.393 251.199 225.359 253.71 226.738 256.546C228.117 259.382 228.878 262.478 228.97 265.63C229.235 269.319 228.557 273.015 227 276.37C225.519 279.5 223.389 282.278 220.75 284.52C218.292 286.626 215.45 288.235 212.38 289.26C208.777 290.344 205.042 290.929 201.28 291L201.41 293.73C201.44 294.236 201.366 294.742 201.192 295.217C201.019 295.693 200.749 296.127 200.4 296.494C200.051 296.861 199.63 297.152 199.164 297.349C198.698 297.546 198.196 297.645 197.69 297.64C196.638 297.629 195.63 297.22 194.869 296.494C194.108 295.768 193.651 294.78 193.59 293.73L193.46 291C189.071 290.718 184.738 289.865 180.57 288.46C177.377 287.307 174.425 285.574 171.86 283.35C169.519 281.352 167.537 278.967 166 276.3C164.459 273.432 163.337 270.357 162.67 267.17L184.18 264.66C184.993 268.187 185.993 270.737 187.18 272.31C188.671 274.138 190.587 275.573 192.76 276.49L191.85 257.57C186.523 256.244 181.307 254.506 176.25 252.37C172.978 250.739 170.166 248.315 168.07 245.32C165.62 241.858 164.265 237.741 164.18 233.5C163.948 230.574 164.355 227.633 165.374 224.88C166.393 222.128 167.999 219.63 170.08 217.56C174.32 213.287 180.82 210.92 189.58 210.46L189.51 209.07C189.48 208.565 189.554 208.059 189.728 207.583C189.901 207.108 190.171 206.673 190.52 206.307C190.869 205.94 191.29 205.649 191.756 205.452C192.222 205.255 192.724 205.155 193.23 205.16C194.282 205.171 195.29 205.581 196.051 206.307C196.812 207.033 197.269 208.02 197.33 209.07L197.4 210.46C205.4 210.96 211.603 212.854 216.01 216.14C220.443 219.483 223.595 224.244 224.94 229.63ZM190.24 224.28C188.457 224.737 186.847 225.708 185.61 227.07C184.768 228.2 184.36 229.595 184.46 231C184.513 232.508 185.061 233.956 186.02 235.12C187.355 236.521 189.045 237.534 190.91 238.05L190.24 224.28ZM200.61 277C203.61 276.334 205.777 275.214 207.11 273.64C207.75 272.933 208.244 272.105 208.563 271.206C208.882 270.307 209.021 269.353 208.97 268.4C208.868 266.664 208.16 265.018 206.97 263.75C205.71 262.34 203.31 261.02 199.79 259.81L200.61 277Z" fill="#FAFAFA"/>
</g>
<path opacity="0.2" d="M277.2 146.561H178.2L187.85 346.671C188.321 354.869 191.887 362.582 197.827 368.251C203.768 373.92 211.639 377.123 219.85 377.211H318.85L309.21 177.101C308.744 168.899 305.178 161.182 299.234 155.511C293.291 149.841 285.414 146.641 277.2 146.561Z" fill="black"/>
<path d="M301.45 146.561H178.23C186.442 146.646 194.314 149.848 200.255 155.517C206.196 161.187 209.761 168.902 210.23 177.101L218.1 340.001C218.571 348.199 222.137 355.912 228.077 361.581C234.018 367.25 241.889 370.453 250.1 370.541H312.23C316.186 370.582 320.108 369.809 323.752 368.269C327.396 366.73 330.684 364.458 333.413 361.593C336.141 358.729 338.251 355.334 339.612 351.619C340.972 347.904 341.553 343.95 341.32 340.001L333.46 177.101C332.994 168.899 329.428 161.182 323.484 155.511C317.541 149.841 309.664 146.641 301.45 146.561Z" fill="#FAFAFA"/>
<path d="M279.18 340C279.415 343.947 278.835 347.9 277.477 351.613C276.119 355.326 274.012 358.721 271.287 361.585C268.561 364.449 265.275 366.722 261.634 368.263C257.993 369.803 254.074 370.579 250.12 370.54H373.33C377.284 370.578 381.204 369.803 384.846 368.263C388.487 366.722 391.773 364.45 394.5 361.585C397.226 358.721 399.334 355.327 400.693 351.614C402.052 347.9 402.633 343.947 402.4 340H279.18Z" fill="#E6E6E6"/>
<path d="M318.8 247.67H231.72C231.11 247.663 230.524 247.425 230.083 247.004C229.641 246.583 229.375 246.009 229.34 245.4C229.324 245.107 229.367 244.813 229.469 244.538C229.57 244.262 229.727 244.01 229.929 243.798C230.131 243.585 230.375 243.416 230.645 243.301C230.916 243.186 231.206 243.128 231.5 243.13H318.58C319.197 243.126 319.793 243.36 320.243 243.782C320.693 244.205 320.964 244.784 321 245.4C321.017 245.696 320.972 245.993 320.868 246.272C320.764 246.55 320.604 246.804 320.397 247.017C320.191 247.23 319.942 247.398 319.667 247.511C319.392 247.623 319.097 247.677 318.8 247.67Z" fill="#419644"/>
<path d="M319.48 261.84H232.4C231.79 261.833 231.204 261.595 230.763 261.174C230.321 260.753 230.056 260.179 230.02 259.57C230.004 259.277 230.048 258.983 230.149 258.708C230.25 258.432 230.407 258.18 230.609 257.968C230.812 257.755 231.055 257.586 231.325 257.471C231.596 257.356 231.886 257.298 232.18 257.3H319.27C319.879 257.309 320.461 257.548 320.901 257.969C321.341 258.39 321.605 258.962 321.64 259.57C321.656 259.863 321.613 260.156 321.511 260.432C321.41 260.707 321.253 260.959 321.051 261.172C320.849 261.385 320.605 261.554 320.335 261.668C320.064 261.783 319.774 261.842 319.48 261.84Z" fill="#419644"/>
<path d="M320.17 276H233.08C232.47 275.993 231.884 275.755 231.443 275.334C231.001 274.913 230.735 274.339 230.7 273.73C230.684 273.437 230.727 273.144 230.829 272.868C230.93 272.592 231.087 272.341 231.289 272.128C231.491 271.915 231.735 271.746 232.005 271.631C232.276 271.516 232.566 271.458 232.86 271.46H320C320.61 271.467 321.196 271.705 321.637 272.126C322.079 272.547 322.345 273.121 322.38 273.73C322.397 274.027 322.352 274.325 322.247 274.604C322.143 274.883 321.982 275.137 321.774 275.351C321.566 275.564 321.316 275.732 321.04 275.844C320.764 275.956 320.468 276.009 320.17 276Z" fill="#419644"/>
<path d="M320.85 290.19H233.77C233.16 290.182 232.576 289.943 232.135 289.522C231.694 289.101 231.428 288.529 231.39 287.92C231.374 287.627 231.417 287.334 231.519 287.058C231.62 286.783 231.777 286.531 231.979 286.318C232.182 286.106 232.425 285.937 232.695 285.822C232.966 285.707 233.257 285.649 233.55 285.65H320.63C321.241 285.657 321.826 285.895 322.268 286.316C322.709 286.738 322.975 287.311 323.01 287.92C323.026 288.214 322.983 288.507 322.881 288.782C322.78 289.058 322.623 289.31 322.421 289.523C322.219 289.735 321.975 289.904 321.705 290.019C321.434 290.134 321.144 290.192 320.85 290.19Z" fill="#419644"/>
<path d="M286.91 304.36H234.45C233.84 304.354 233.254 304.116 232.813 303.694C232.371 303.273 232.105 302.7 232.07 302.09C232.054 301.797 232.097 301.504 232.199 301.228C232.3 300.953 232.457 300.701 232.659 300.488C232.861 300.276 233.105 300.107 233.375 299.992C233.646 299.877 233.936 299.819 234.23 299.82H286.69C287.3 299.827 287.886 300.065 288.327 300.486C288.769 300.908 289.035 301.481 289.07 302.09C289.086 302.383 289.043 302.677 288.941 302.952C288.84 303.228 288.683 303.48 288.481 303.692C288.279 303.905 288.035 304.074 287.765 304.189C287.494 304.304 287.204 304.362 286.91 304.36Z" fill="#419644"/>
<path d="M292.96 218.298C303.265 207.742 302.638 190.419 291.561 179.605C280.483 168.792 263.15 168.582 252.845 179.138C242.541 189.694 243.167 207.017 254.245 217.831C265.322 228.645 282.656 228.854 292.96 218.298Z" fill="#419644"/>
<path d="M295.48 198.7C295.669 202.416 294.908 206.119 293.27 209.46C291.494 213.042 288.744 216.051 285.335 218.142C281.927 220.233 277.998 221.32 274 221.28C269.864 221.249 265.807 220.143 262.227 218.071C258.647 215.999 255.667 213.031 253.58 209.46C251.633 206.193 250.517 202.499 250.33 198.7C250.157 195.782 250.586 192.859 251.591 190.114C252.595 187.368 254.154 184.859 256.169 182.741C258.184 180.623 260.614 178.943 263.306 177.804C265.999 176.665 268.897 176.092 271.82 176.12C277.888 176.196 283.702 178.567 288.092 182.756C292.482 186.946 295.121 192.643 295.48 198.7Z" fill="white"/>
<path opacity="0.4" d="M293.27 209.461C291.494 213.043 288.744 216.052 285.335 218.143C281.927 220.233 277.998 221.321 274 221.281C269.864 221.249 265.807 220.143 262.227 218.071C258.647 215.999 255.667 213.032 253.58 209.461C259.335 205.512 266.161 203.418 273.14 203.461C280.289 203.474 287.281 205.558 293.27 209.461Z" fill="#419644"/>
<path opacity="0.4" d="M279.893 198.158C283.682 194.277 283.453 187.91 279.383 183.936C275.312 179.962 268.941 179.887 265.153 183.768C261.364 187.649 261.593 194.016 265.663 197.99C269.734 201.964 276.105 202.039 279.893 198.158Z" fill="#419644"/>
<path d="M356.76 408.74H349.42L348.68 391.72H356.03L356.76 408.74Z" fill="#B55B52"/>
<path opacity="0.2" d="M348.69 391.729L349.06 400.499H356.41L356.03 391.729H348.69Z" fill="black"/>
<path d="M419.29 388.8L412.31 391.08L403.52 376.05L410.51 373.77L419.29 388.8Z" fill="#B55B52"/>
<path opacity="0.2" d="M410.51 373.77L403.52 376.05L408.06 383.8L415.04 381.52L410.51 373.77Z" fill="black"/>
<path d="M381.6 162.92C382.51 164.03 383.28 165.02 384.07 166.11C384.86 167.2 385.61 168.24 386.36 169.32C387.84 171.49 389.26 173.71 390.59 176C393.358 180.646 395.614 185.578 397.32 190.71L397.49 191.21L397.57 191.47L397.68 191.88L397.88 192.7L397.99 193.45C398.108 194.348 398.145 195.255 398.1 196.16C398.007 197.686 397.786 199.201 397.44 200.69C396.807 203.358 395.968 205.972 394.93 208.51C392.953 213.375 390.557 218.059 387.77 222.51L382.77 220.12C384.27 215.43 385.77 210.63 386.87 205.96C387.443 203.709 387.877 201.424 388.17 199.12C388.293 198.125 388.33 197.121 388.28 196.12C388.265 195.763 388.218 195.408 388.14 195.06L388.09 194.88C388.071 194.848 388.055 194.814 388.04 194.78L387.96 194.59L387.8 194.2L387.13 192.63L386.38 191.07C385.88 190.07 385.33 188.99 384.78 187.95C383.64 185.89 382.41 183.84 381.13 181.8C379.85 179.76 378.49 177.8 377.13 175.8C375.77 173.8 374.28 171.8 372.93 169.99L381.6 162.92Z" fill="#B55B52"/>
<path d="M383.23 218.88L380.36 225.23H388.57C388.57 225.23 389.88 220.41 386.9 218.46L383.23 218.88Z" fill="#B55B52"/>
<path d="M381.32 232.369L388.94 230.899L388.57 225.229H380.36L381.32 232.369Z" fill="#B55B52"/>
<path d="M345.22 130.69C345.22 131.29 344.91 131.77 344.52 131.77C344.13 131.77 343.82 131.29 343.82 130.69C343.82 130.09 344.14 129.62 344.52 129.62C344.9 129.62 345.22 130.1 345.22 130.69Z" fill="#263238"/>
<path d="M345 131.77C344.295 133.579 343.343 135.282 342.17 136.83C342.574 137.119 343.037 137.318 343.526 137.411C344.014 137.504 344.517 137.49 345 137.37V131.77Z" fill="#A02724"/>
<path d="M347.32 127.41C347.247 127.411 347.176 127.386 347.12 127.34C346.772 127.078 346.367 126.901 345.938 126.823C345.509 126.744 345.068 126.768 344.65 126.89C344.566 126.913 344.477 126.904 344.4 126.865C344.323 126.825 344.262 126.759 344.231 126.678C344.2 126.597 344.2 126.507 344.231 126.426C344.263 126.346 344.323 126.279 344.4 126.24C344.927 126.073 345.486 126.034 346.031 126.128C346.576 126.222 347.09 126.446 347.53 126.78C347.604 126.836 347.653 126.918 347.668 127.009C347.683 127.1 347.662 127.194 347.61 127.27C347.575 127.314 347.531 127.349 347.481 127.373C347.431 127.397 347.376 127.41 347.32 127.41Z" fill="#263238"/>
<path d="M364.35 137.52C363.29 142.9 362.24 152.75 366 156.33C366 156.33 364.53 161.78 354.55 161.78C343.55 161.78 349.3 156.33 349.3 156.33C355.3 154.9 355.14 150.46 354.09 146.28L364.35 137.52Z" fill="#B55B52"/>
<path d="M367.44 158.2C368.23 156.48 369.1 154.5 367.3 153.88C365.3 153.2 354.54 152.51 350.81 153.79C350.32 153.926 349.861 154.158 349.461 154.472C349.061 154.787 348.727 155.178 348.48 155.623C348.232 156.068 348.076 156.557 348.019 157.063C347.962 157.569 348.007 158.081 348.15 158.57L367.44 158.2Z" fill="#263238"/>
<path d="M410.8 392.83C410.26 393.35 409.65 393.77 409.19 393.7C409.045 393.671 408.912 393.597 408.81 393.49C408.708 393.383 408.642 393.246 408.62 393.1C408.59 392.986 408.585 392.867 408.605 392.751C408.626 392.636 408.672 392.526 408.74 392.43C409.34 391.5 411.74 391.1 411.87 391.09C411.902 391.085 411.935 391.089 411.965 391.101C411.995 391.114 412.021 391.134 412.04 391.16C412.059 391.188 412.069 391.221 412.069 391.255C412.069 391.289 412.059 391.322 412.04 391.35C411.68 391.885 411.264 392.381 410.8 392.83ZM409.17 392.45C409.118 392.498 409.071 392.552 409.03 392.61C408.99 392.667 408.963 392.733 408.951 392.802C408.939 392.871 408.942 392.942 408.96 393.01C409.04 393.32 409.19 393.35 409.24 393.35C409.75 393.43 410.84 392.35 411.51 391.51C410.67 391.647 409.871 391.968 409.17 392.45Z" fill="#419644"/>
<path d="M412 391.38L411.92 391.43C411.09 391.65 408.92 391.51 408.46 390.81C408.391 390.698 408.362 390.566 408.377 390.436C408.391 390.306 408.449 390.184 408.54 390.09C408.626 389.988 408.731 389.905 408.85 389.845C408.968 389.785 409.098 389.749 409.23 389.74C410.33 389.66 411.92 391.07 411.99 391.13C412.014 391.15 412.032 391.177 412.041 391.207C412.05 391.237 412.049 391.269 412.04 391.3C412.038 391.33 412.023 391.359 412 391.38ZM408.87 390.26L408.81 390.32C408.67 390.49 408.73 390.58 408.75 390.62C409.02 391.03 410.54 391.26 411.48 391.15C410.859 390.588 410.087 390.22 409.26 390.09C409.12 390.101 408.989 390.161 408.89 390.26H408.87Z" fill="#419644"/>
<path d="M346.46 409.11C345.52 409.11 344.61 408.98 344.31 408.56C344.229 408.45 344.185 408.317 344.185 408.18C344.185 408.043 344.229 407.91 344.31 407.8C344.369 407.698 344.448 407.609 344.543 407.539C344.638 407.468 344.745 407.418 344.86 407.39C346.08 407.06 348.65 408.52 348.76 408.59C348.792 408.607 348.817 408.634 348.831 408.666C348.846 408.699 348.849 408.736 348.84 408.77C348.835 408.804 348.82 408.835 348.797 408.86C348.773 408.885 348.743 408.903 348.71 408.91C347.967 409.04 347.214 409.107 346.46 409.11ZM345.3 407.69C345.187 407.674 345.073 407.674 344.96 407.69C344.89 407.704 344.823 407.733 344.764 407.774C344.706 407.815 344.657 407.869 344.62 407.93C344.5 408.15 344.54 408.26 344.62 408.32C344.96 408.79 346.82 408.8 348.18 408.61C347.289 408.119 346.311 407.807 345.3 407.69Z" fill="#419644"/>
<path d="M348.68 408.91H348.61C347.73 408.51 345.97 406.91 346.1 406.09C346.1 405.89 346.27 405.65 346.75 405.6C346.928 405.58 347.109 405.596 347.281 405.648C347.453 405.699 347.612 405.785 347.75 405.9C348.68 406.67 348.88 408.65 348.89 408.73C348.889 408.761 348.882 408.791 348.868 408.819C348.854 408.847 348.834 408.871 348.81 408.89C348.791 408.902 348.769 408.91 348.747 408.913C348.725 408.917 348.702 408.916 348.68 408.91ZM346.89 405.91H346.79C346.47 405.91 346.45 406.06 346.45 406.1C346.37 406.6 347.56 407.85 348.45 408.39C348.364 407.55 348.014 406.759 347.45 406.13C347.291 406.003 347.094 405.933 346.89 405.93V405.91Z" fill="#419644"/>
<path d="M411.7 390.27L417.7 384.56C417.804 384.457 417.941 384.394 418.087 384.381C418.233 384.369 418.379 384.407 418.5 384.49L424.06 388.21C424.195 388.301 424.307 388.421 424.388 388.562C424.469 388.702 424.517 388.859 424.529 389.021C424.54 389.183 424.515 389.345 424.455 389.496C424.394 389.646 424.3 389.781 424.18 389.89C422.07 391.89 420.94 392.7 418.32 395.2C416.7 396.75 411.88 402 409.65 404.14C407.42 406.28 405.02 404.34 405.74 403.27C408.98 398.46 411 393.85 411.18 391.42C411.212 390.988 411.397 390.58 411.7 390.27Z" fill="#263238"/>
<path d="M349.46 407.89H357.46C357.605 407.889 357.746 407.938 357.859 408.029C357.972 408.12 358.05 408.248 358.08 408.39L359.53 414.92C359.567 415.077 359.567 415.24 359.531 415.397C359.495 415.554 359.423 415.7 359.322 415.826C359.221 415.951 359.093 416.052 358.947 416.12C358.801 416.188 358.641 416.222 358.48 416.22C355.58 416.22 351.4 416.01 347.76 416.01C343.51 416.01 339.84 416.24 334.85 416.24C331.85 416.24 331 413.19 332.26 412.91C338 411.66 342.7 411.52 347.66 408.46C348.195 408.105 348.819 407.908 349.46 407.89Z" fill="#263238"/>
<path d="M339 173C336.08 177.3 333.07 181.32 329.83 185.29C326.578 189.308 323.102 193.141 319.42 196.77L318 198.15L317.64 198.49L317.38 198.73L317 199C316.529 199.38 316.023 199.714 315.49 200C313.802 200.89 311.945 201.412 310.04 201.53C307.134 201.702 304.218 201.459 301.38 200.81C296.237 199.676 291.251 197.923 286.53 195.59L288.37 190.39C293.053 191.326 297.788 191.974 302.55 192.33C304.643 192.495 306.748 192.408 308.82 192.07C309.415 191.981 309.983 191.759 310.48 191.42C310.53 191.42 310.48 191.36 310.48 191.36L310.56 191.28L310.85 190.95L312.04 189.65C315.16 186.09 318.19 182.29 321.13 178.41C324.07 174.53 327.02 170.55 329.83 166.67L339 173Z" fill="#B55B52"/>
<path d="M379.16 158C386.04 159.58 393.94 178.35 393.94 178.35L380.11 187.83C376.675 182.894 373.629 177.698 371 172.29C366.9 163.7 372.12 156.38 379.16 158Z" fill="#419644"/>
<path opacity="0.3" d="M374.22 170L380.76 187.41L380.11 187.86C380.11 187.86 377.28 183.86 374.22 178.53V170Z" fill="black"/>
<path d="M338 158.37C338 158.37 330.18 167.2 337.57 221.87H376.86C377.13 215.87 373.34 186.41 379.16 157.99C374.814 157.154 370.418 156.6 366 156.33C360.438 156.01 354.862 156.01 349.3 156.33C345.486 156.714 341.708 157.396 338 158.37Z" fill="#419644"/>
<path opacity="0.3" d="M342.36 174.18C341.338 180.384 338.656 186.195 334.6 191C334.44 187.48 334.38 184.32 334.39 181.49L342.36 174.18Z" fill="black"/>
<path d="M345.75 164.33C346.75 171.28 333.01 189.05 333.01 189.05L319.24 179.57C319.24 179.57 323.06 169.78 329.49 163.36C336.84 156 344.7 156.76 345.75 164.33Z" fill="#419644"/>
<path d="M289.32 191L283.93 185.43L278.18 192.84C278.18 192.84 282.56 197.07 287.77 195.84L289.32 191Z" fill="#B55B52"/>
<path d="M276.53 182.33L274.06 190.11L278.18 192.81L283.93 185.4L276.53 182.33Z" fill="#B55B52"/>
<path d="M365 129.44C364.55 136.71 364.66 141 361 144.73C355.47 150.35 346.49 147.02 344.76 139.73C343.19 133.19 344.19 122.39 351.31 119.5C352.878 118.855 354.585 118.623 356.269 118.824C357.952 119.026 359.556 119.654 360.928 120.651C362.3 121.647 363.395 122.977 364.107 124.516C364.82 126.054 365.127 127.749 365 129.44Z" fill="#B55B52"/>
<path d="M371.33 114.25C373.57 116.31 372.62 118.61 371.45 119.04C375.08 119.79 375.61 122.68 373.7 128.78C371.88 134.62 367.47 142.45 361.96 142.93C353.68 143.65 351.26 135.02 351.2 126.46C346.52 126.75 348.54 122.6 342.79 123.56C337.79 124.39 339.67 120.49 335.42 118.79C330.49 116.79 331.48 109.24 336.08 111.41C336.08 111.41 333.95 112.81 336.43 114.13C338.91 115.45 338.67 112.4 343.58 112.03C348.49 111.66 349.06 115.86 354.8 113.33C362 110.15 366.73 110 371.33 114.25Z" fill="#263238"/>
<path d="M368.57 118.999C368.897 118.476 369.383 118.071 369.958 117.846C370.533 117.621 371.165 117.587 371.76 117.749C374.01 118.229 374.19 119.219 375.6 119.089C377.01 118.959 376.5 120.459 376.5 120.459C376.5 120.459 376.12 119.329 374.42 119.959C372.72 120.589 371.61 119.049 370.88 119.739C370.15 120.429 368.57 118.999 368.57 118.999Z" fill="#263238"/>
<path d="M355.12 131.42C354.801 133.203 353.896 134.828 352.55 136.04C350.77 137.62 349.23 136.35 349.17 134.19C349.17 132.24 350 129.06 352.05 128.3C354.1 127.54 355.49 129.26 355.12 131.42Z" fill="#B55B52"/>
<path d="M351.5 221.87C351.5 221.87 359.84 278 364.42 299C369.42 322 404.27 383.2 404.27 383.2L417.07 379.04C417.07 379.04 389.32 323.9 386.46 301.09C383.35 276.34 376.86 221.83 376.86 221.83L351.5 221.87Z" fill="#263238"/>
<path d="M400.69 379.2C400.64 379.2 403.62 383.68 403.62 383.68L418 379L416.31 374.7L400.69 379.2Z" fill="#419644"/>
<path opacity="0.3" d="M356.77 241.87C366.41 243.76 365.39 279.71 364.23 298.2C361.45 285.13 357.38 259.98 354.6 242.13C355.273 241.798 356.038 241.707 356.77 241.87Z" fill="black"/>
<path d="M337.57 221.87C337.57 221.87 336.57 276.8 337.35 299.2C338.18 322.5 346.35 398.8 346.35 398.8H358.8C358.8 398.8 359.25 323.86 359.8 300.98C360.4 275.98 363.41 221.87 363.41 221.87H337.57Z" fill="#263238"/>
<path d="M343.93 393.84C343.87 393.84 344.63 399.01 344.63 399.01H359.77L360.18 394.4L343.93 393.84Z" fill="#419644"/>
</svg>
